<?xml version="1.0" standalone="no"?>
<!DOCTYPE svg PUBLIC "-//W3C//DTD SVG 20010904//EN"
 "http://www.w3.org/TR/2001/REC-SVG-20010904/DTD/svg10.dtd">
<svg version="1.0" xmlns="http://www.w3.org/2000/svg"
 width="895.000000pt" height="875.000000pt" viewBox="0 0 895.000000 875.000000"
 preserveAspectRatio="xMidYMid meet">

<g transform="translate(0.000000,875.000000) scale(0.100000,-0.100000)"
fill="#000000" stroke="none">
<path d="M6170 7548 c-133 -260 -243 -474 -244 -475 -1 -1 -58 5 -126 13 -180
21 -658 29 -870 15 -485 -33 -876 -104 -1322 -241 -1069 -329 -2129 -920
-3028 -1689 -134 -114 -400 -365 -400 -377 0 -31 323 -310 595 -514 853 -642
1777 -1062 2660 -1209 275 -46 398 -55 725 -56 240 0 349 4 460 18 211 26 412
64 514 98 532 178 929 698 1022 1339 22 157 15 476 -14 600 -64 268 -207 549
-405 795 -95 118 -241 269 -295 305 -42 29 -44 32 -17 26 117 -27 528 -217
725 -336 360 -217 685 -512 977 -888 139 -179 217 -300 207 -322 -20 -42 -287
-330 -501 -541 -376 -368 -663 -589 -971 -743 -636 -319 -1640 -506 -2714
-506 l-258 0 -15 -38 c-26 -61 -254 -692 -386 -1069 -109 -310 -127 -353 -145
-353 -16 0 -25 14 -46 72 -15 40 -85 236 -157 436 -72 200 -131 378 -131 397
0 27 7 39 30 57 18 13 30 31 30 45 l0 23 -245 0 -245 0 0 -24 c0 -21 11 -30
64 -55 35 -17 68 -37 74 -44 13 -15 140 -357 318 -854 l118 -333 99 0 c69 0
99 4 102 12 32 97 273 752 321 876 69 176 116 254 198 330 43 40 49 42 105 42
49 0 65 -4 89 -25 55 -46 57 -70 55 -608 -2 -474 -3 -489 -23 -517 -11 -16
-36 -38 -55 -50 -20 -13 -35 -30 -35 -41 0 -18 10 -19 240 -19 233 0 240 1
240 20 0 13 -12 25 -34 34 -73 31 -71 9 -74 596 -3 509 -2 526 17 557 15 24
33 36 72 47 29 9 61 16 71 16 10 0 18 4 18 10 0 5 -26 10 -57 12 -32 2 120 9
337 15 428 14 645 31 867 68 762 129 1592 461 2483 993 499 298 792 524 1175
907 93 94 194 198 222 231 l52 61 -149 132 c-466 413 -945 772 -1303 976 -65
37 -198 105 -296 151 -586 274 -1114 439 -1631 510 -187 25 -607 31 -784 10
-419 -48 -789 -177 -1086 -377 -572 -384 -784 -1032 -605 -1847 41 -182 148
-383 319 -597 150 -186 277 -297 440 -383 124 -65 96 -60 -149 27 -394 141
-603 234 -740 329 -438 303 -891 768 -1078 1106 -53 95 -57 107 -45 125 31 43
219 245 407 434 294 299 434 415 694 580 628 398 1279 635 2005 732 431 57
770 59 1147 6 72 -10 132 -17 133 -15 2 1 98 274 213 606 115 332 227 654 249
716 22 61 38 112 36 112 -2 0 -113 -213 -246 -472z m-1385 -1638 c605 -163
1014 -899 839 -1508 -105 -365 -453 -705 -835 -816 -277 -80 -581 -58 -824 59
-258 124 -464 318 -575 540 -82 165 -94 223 -94 470 0 226 10 306 60 475 135
450 478 733 966 799 123 16 370 7 463 -19z"/>
<path d="M4332 5558 l3 -83 108 -3 107 -3 0 26 c0 24 -2 25 -70 25 l-70 0 0
60 0 60 -40 0 -41 0 3 -82z"/>
<path d="M4625 5631 c-16 -27 -55 -156 -47 -159 5 -1 18 -9 28 -17 17 -12 21
-11 40 12 l21 26 61 -15 c57 -15 61 -14 65 3 4 15 -7 22 -59 39 -35 12 -64 25
-64 30 0 19 23 20 81 4 60 -17 62 -17 75 1 8 10 14 22 14 26 0 4 -35 16 -77
27 -124 33 -130 34 -138 23z"/>
<path d="M4078 5568 c-32 -17 -58 -36 -58 -42 0 -6 16 -44 35 -84 40 -84 29
-82 155 -25 41 19 78 39 82 46 17 27 8 88 -17 112 -37 38 -121 35 -197 -7z
m152 -37 c5 -11 7 -26 4 -34 -5 -13 -94 -57 -115 -57 -9 0 -43 60 -37 65 11
11 96 44 115 44 12 1 27 -8 33 -18z"/>
<path d="M4860 5488 c-78 -90 -78 -77 6 -152 62 -55 81 -66 110 -66 45 0 90
42 100 94 6 32 3 41 -22 68 -24 25 -136 108 -146 108 -2 0 -23 -23 -48 -52z
m118 -66 c41 -36 42 -38 27 -59 -22 -31 -40 -29 -86 8 l-39 31 22 28 c13 16
25 29 28 29 3 1 24 -16 48 -37z"/>
<path d="M3840 5405 l-74 -75 64 -67 c36 -37 66 -70 68 -72 1 -3 15 7 29 22
27 26 27 26 8 47 -19 21 -19 22 30 65 50 43 50 43 31 64 l-20 22 -42 -42 c-31
-30 -47 -40 -60 -35 -16 6 -10 15 36 55 55 49 55 49 36 70 -11 11 -22 21 -25
21 -4 0 -40 -34 -81 -75z"/>
<path d="M5072 5279 l-72 -61 47 -60 c27 -32 55 -69 64 -80 15 -20 17 -20 42
-3 l27 17 -20 27 c-11 14 -29 37 -40 51 l-20 25 50 45 51 46 -28 26 -28 27
-73 -60z"/>
<path d="M3808 5152 c-46 -80 -40 -77 -95 -43 -28 17 -55 31 -60 31 -10 0 -48
-49 -41 -54 2 -1 40 -25 85 -53 l81 -52 56 92 c55 92 55 92 34 110 -11 9 -23
17 -27 17 -3 0 -18 -21 -33 -48z"/>
<path d="M5220 5057 c-41 -17 -77 -32 -78 -33 -2 -1 -1 -12 3 -24 5 -17 12
-20 35 -15 28 6 29 5 35 -42 10 -75 14 -83 40 -83 15 0 23 5 21 13 -3 6 -7 39
-11 72 -5 49 -3 57 7 47 7 -7 18 -38 23 -70 10 -52 13 -57 38 -60 23 -3 27 0
27 22 0 26 -47 186 -58 198 -4 3 -41 -8 -82 -25z"/>
<path d="M3623 4978 c-12 -6 -27 -25 -32 -42 -10 -29 -32 -168 -28 -172 1 -1
41 -10 89 -21 l86 -20 11 41 c28 115 24 194 -13 218 -16 11 -88 8 -113 -4z
m85 -87 c2 -19 1 -50 -3 -68 -5 -30 -9 -33 -33 -27 -52 11 -51 9 -40 61 12 58
25 75 52 71 16 -2 22 -11 24 -37z"/>
<path d="M4027 4853 c-4 -3 -7 -53 -7 -109 l0 -103 54 -6 c64 -8 179 8 212 30
29 19 44 53 44 99 0 41 -37 81 -81 90 -42 8 -214 8 -222 -1z m209 -77 c30 -41
-10 -76 -88 -76 l-58 0 0 43 c0 24 3 47 8 51 14 15 124 1 138 -18z"/>
<path d="M4367 4853 c-4 -3 -7 -51 -7 -105 l0 -98 120 0 c120 0 120 0 120 24
0 27 -28 36 -116 36 l-54 0 0 75 0 75 -28 0 c-16 0 -32 -3 -35 -7z"/>
<path d="M4650 4755 l0 -105 35 0 c28 0 35 4 35 19 0 17 10 20 68 26 37 3 76
7 87 8 12 1 21 11 23 25 3 21 1 22 -87 22 -90 0 -91 0 -91 25 0 25 0 25 95 25
l95 0 0 30 0 30 -130 0 -130 0 0 -105z"/>
<path d="M5186 4802 c-12 -19 -26 -136 -20 -166 7 -41 35 -73 69 -82 32 -8 90
3 103 19 13 15 32 125 32 183 l0 41 -52 7 c-72 8 -126 8 -132 -2z m124 -94 c0
-51 -10 -77 -32 -84 -34 -10 -51 16 -43 70 7 44 9 46 41 46 32 0 34 -2 34 -32z"/>
<path d="M3677 4672 c-19 -4 -19 -31 -1 -125 5 -24 3 -28 -12 -25 -14 2 -21
16 -26 53 -14 86 -17 95 -38 95 -10 0 -21 -4 -24 -8 -2 -4 5 -56 16 -116 l21
-108 31 5 c17 3 57 12 89 22 53 15 57 18 57 47 0 29 -2 30 -34 25 -32 -5 -34
-4 -40 31 -3 20 -6 51 -6 69 0 35 -6 42 -33 35z"/>
<path d="M5116 4458 c-54 -94 -56 -101 -39 -114 27 -20 30 -18 66 32 17 26 37
53 43 62 9 13 16 11 56 -12 l45 -26 23 25 c13 14 22 27 19 28 -2 2 -38 27 -80
55 l-76 50 -57 -100z"/>
<path d="M3775 4453 c-16 -9 -32 -17 -34 -19 -2 -1 18 -30 43 -63 l47 -60 -56
-37 -56 -37 27 -28 c15 -16 32 -25 38 -22 9 5 100 67 139 94 7 5 -77 139 -112
181 -3 3 -19 -1 -36 -9z"/>
<path d="M5027 4322 c-21 -23 -21 -31 0 -55 17 -18 16 -20 -30 -64 -46 -43
-47 -46 -31 -64 17 -19 19 -19 66 28 39 38 50 45 60 34 11 -10 2 -22 -45 -64
l-59 -52 24 -22 23 -22 83 82 84 81 -74 68 c-40 37 -76 67 -79 68 -3 0 -13 -8
-22 -18z"/>
<path d="M3905 4230 c-35 -11 -65 -55 -65 -98 0 -32 50 -85 130 -138 l42 -28
39 44 c22 25 48 57 59 71 l20 26 -68 60 c-71 63 -106 77 -157 63z m105 -100
l44 -39 -24 -26 c-13 -14 -26 -25 -30 -25 -3 0 -25 16 -48 36 -43 36 -52 60
-30 82 20 20 41 13 88 -28z"/>
<path d="M4780 4116 c-118 -61 -143 -102 -100 -170 30 -49 61 -62 112 -46 45
13 158 67 158 75 0 16 -86 175 -95 175 -5 -1 -39 -16 -75 -34z m76 -78 c19
-37 12 -45 -55 -68 -86 -28 -99 27 -16 72 28 15 51 28 52 28 1 0 10 -14 19
-32z"/>
<path d="M4173 4033 c-3 -10 -8 -21 -9 -24 -2 -4 24 -17 59 -29 73 -26 82 -33
71 -53 -8 -13 -19 -11 -79 13 -50 20 -72 25 -77 16 -20 -31 -6 -42 94 -73 56
-17 105 -30 108 -28 4 2 15 43 25 91 15 73 16 87 4 95 -20 13 -39 11 -39 -3
-1 -37 -16 -40 -80 -14 -75 31 -69 30 -77 9z"/>
<path d="M4417 4034 c-4 -4 -7 -18 -7 -31 0 -22 3 -23 75 -23 l75 0 0 -60 0
-60 40 0 41 0 -3 88 -3 87 -106 3 c-58 1 -108 -1 -112 -4z"/>
<path d="M7070 2403 c0 -22 5 -33 15 -33 8 0 29 -13 47 -29 l33 -29 3 -326 c2
-225 0 -326 -7 -326 -15 0 -321 614 -321 644 0 14 12 39 27 56 46 55 28 60
-244 60 l-233 0 0 -24 c0 -17 8 -27 29 -36 16 -6 38 -20 50 -31 21 -20 21 -24
21 -551 0 -521 0 -531 -21 -565 -11 -18 -34 -40 -50 -48 -17 -9 -29 -24 -29
-35 0 -19 7 -20 145 -20 144 0 145 0 145 23 0 14 -11 28 -29 39 -55 31 -62 54
-72 225 -6 87 -8 248 -5 358 3 110 5 265 5 345 1 123 3 142 15 130 7 -8 139
-259 292 -557 l279 -542 48 -1 47 0 0 589 0 589 31 31 c17 17 36 31 43 31 19
0 46 34 38 46 -4 7 -63 13 -154 16 l-148 4 0 -33z"/>
<path d="M4690 2406 c0 -19 8 -27 35 -36 71 -23 70 -12 73 -595 2 -348 0 -532
-7 -556 -11 -35 -20 -42 -83 -63 -10 -3 -18 -15 -18 -26 0 -20 5 -20 230 -20
l230 0 0 24 c0 17 -9 29 -27 38 -64 31 -61 9 -65 598 -3 499 -2 537 15 568 12
22 28 35 47 39 19 3 30 12 30 23 0 15 -19 18 -172 23 -287 11 -288 11 -288
-17z"/>
<path d="M3900 2409 c-124 -20 -292 -135 -326 -224 -23 -61 -15 -172 16 -239
48 -101 127 -149 415 -251 183 -65 227 -88 277 -143 108 -120 52 -287 -116
-342 -93 -30 -243 13 -307 88 -49 58 -65 112 -44 152 16 31 12 70 -6 70 -9 0
-269 -128 -279 -137 -3 -3 6 -12 19 -22 13 -9 65 -55 116 -102 137 -128 154
-134 425 -134 194 0 222 2 285 22 110 35 157 70 194 145 41 84 56 180 37 240
-35 119 -151 224 -310 284 -102 38 -321 145 -393 193 -57 37 -63 44 -79 96
-29 100 1 188 78 227 20 11 66 23 102 29 183 25 330 -80 294 -211 -5 -19 -3
-29 10 -37 15 -9 36 2 127 70 l108 80 -24 20 c-119 96 -420 158 -619 126z"/>
<path d="M5565 2404 c-38 -9 -92 -27 -119 -42 -65 -35 -152 -132 -208 -232
-39 -70 -47 -93 -58 -177 -15 -110 -8 -307 15 -421 28 -143 140 -295 260 -352
156 -74 351 -92 492 -45 182 61 280 169 335 370 30 110 33 424 5 524 -52 184
-162 306 -327 361 -87 30 -293 37 -395 14z m302 -74 c70 -35 102 -76 141 -177
25 -65 26 -79 30 -303 6 -371 -22 -515 -119 -612 -51 -51 -90 -63 -204 -62
-70 0 -115 19 -179 75 -89 79 -108 202 -87 569 15 271 47 393 119 462 89 86
191 102 299 48z"/>
</g>
</svg>
